<svg xmlns="http://www.w3.org/2000/svg" width="177" height="176.999" viewBox="0 0 177 176.999">
  <g id="Vector_Smart_Object" data-name="Vector Smart Object" transform="translate(-6245.647 -9119.229)" opacity="0.2">
    <path id="Path_30" data-name="Path 30" d="M6409.249,9175.539l-38.15.29a13.317,13.317,0,0,1-12.692-9.452l-12.052-37.685a13.127,13.127,0,0,0-25.264.188l-11.52,37.86a13.371,13.371,0,0,1-12.571,9.653l-38.138.29c-12.874.088-18.1,17.269-7.639,25.072l31.029,23.109a14.153,14.153,0,0,1,4.933,15.432l-11.532,37.86c-3.88,12.775,10.2,23.26,20.55,15.3l30.7-23.587a12.858,12.858,0,0,1,15.606-.113l31.03,23.121c10.457,7.791,24.394-2.907,20.32-15.619l-12.052-37.685a14.156,14.156,0,0,1,4.715-15.494l30.7-23.587C6427.574,9192.544,6422.11,9175.438,6409.249,9175.539Z" fill="#faa531"/>
  </g>
</svg>
